<svg xmlns="http://www.w3.org/2000/svg" xmlns:xlink="http://www.w3.org/1999/xlink" width="20pt" height="20pt" viewBox="0 0 20 20" version="1.1" class="s-ion-icon">
<g id="surface12847042">
<path style=" stroke:none;fill-rule:nonzero;fill-opacity:1;" d="M 19.691406 10 C 19.691406 4.648438 15.351562 0.308594 10 0.308594 C 4.648438 0.308594 0.308594 4.648438 0.308594 10 C 0.308594 15.351562 4.648438 19.691406 10 19.691406 C 15.351562 19.691406 19.691406 15.351562 19.691406 10 Z M 19.691406 10 "></path>
<path style=" stroke:none;fill-rule:nonzero;fill:rgb(100%,100%,100%);fill-opacity:1;" d="M 12.625 14.355469 C 12.570312 14.277344 12.46875 14.246094 12.378906 14.289062 C 11.417969 14.742188 10.328125 15.222656 10.113281 15.265625 C 10.109375 15.261719 10.097656 15.253906 10.089844 15.238281 C 10.0625 15.199219 10.046875 15.148438 10.046875 15.082031 C 10.046875 14.539062 10.457031 12.886719 11.265625 10.171875 C 11.949219 7.890625 12.027344 7.417969 12.027344 7.261719 C 12.027344 7.019531 11.933594 6.816406 11.757812 6.671875 C 11.589844 6.535156 11.359375 6.464844 11.066406 6.464844 C 10.578125 6.464844 10.015625 6.648438 9.34375 7.03125 C 8.691406 7.398438 7.960938 8.023438 7.179688 8.886719 C 7.117188 8.953125 7.113281 9.054688 7.164062 9.128906 C 7.214844 9.203125 7.3125 9.230469 7.398438 9.199219 C 7.671875 9.085938 9.054688 8.519531 9.257812 8.394531 C 9.421875 8.292969 9.566406 8.238281 9.683594 8.238281 C 9.6875 8.238281 9.691406 8.238281 9.695312 8.238281 C 9.695312 8.246094 9.699219 8.257812 9.699219 8.273438 C 9.699219 8.390625 9.675781 8.535156 9.625 8.691406 C 8.449219 12.503906 7.875 14.84375 7.875 15.839844 C 7.875 16.191406 7.972656 16.472656 8.164062 16.679688 C 8.359375 16.890625 8.625 16.996094 8.949219 16.996094 C 9.296875 16.996094 9.71875 16.851562 10.242188 16.550781 C 10.746094 16.261719 11.519531 15.625 12.601562 14.609375 C 12.667969 14.539062 12.679688 14.433594 12.625 14.355469 Z M 12.585938 3.304688 C 12.394531 3.109375 12.148438 3.007812 11.855469 3.007812 C 11.492188 3.007812 11.171875 3.152344 10.910156 3.4375 C 10.652344 3.71875 10.523438 4.058594 10.523438 4.457031 C 10.523438 4.769531 10.621094 5.03125 10.808594 5.230469 C 11 5.433594 11.242188 5.535156 11.53125 5.535156 C 11.882812 5.535156 12.195312 5.382812 12.46875 5.082031 C 12.738281 4.785156 12.875 4.441406 12.875 4.050781 C 12.875 3.75 12.777344 3.5 12.585938 3.304688 Z M 12.585938 3.304688 "></path>
</g>
</svg>